# xmcd
#
# Track frame offsets: 
#        150
#        22880
#        37599
#        53237
#        71655
#        86183
#        102856
#        123955
#        137025
#        147540
#        162890
#        176118
#        189828
#        202412
#        220687
#        232920
#        244993
#        260029
#        273402
#        287460
#        297849
#
# Disc length: 4193 seconds
#
# Revision: 0
# Processed by: cddbd v1.5.2PL0 Copyright (c) Steve Scherf et al.
# Submitted via: ExactAudioCopy v1.1
#
DISCID=3b105f15
DTITLE=Ray Price - Danny Boy (1967) - Take Me As I Am (1968)
DYEAR=2016
DGENRE=Country
TTITLE0=Danny Boy
TTITLE1=Greensleves 
TTITLE2=Across The Wide Missouri
TTITLE3=Soft Rain
TTITLE4=Pretend
TTITLE5=Spanish Eyes
TTITLE6=What's Come Over My Baby
TTITLE7=Crazy
TTITLE8=Born To Lose
TTITLE9=Vaya Con Dios
TTITLE10=Take Me As I Am (Or Let Me Go)
TTITLE11=Don't You Believe Her
TTITLE12=Sittin' And Thinkin'
TTITLE13=I'm Still Not Over You
TTITLE14=I Can't Help It (If I'm Still In Love With You)
TTITLE15=Walk Through This World With Me
TTITLE16=Night Life
TTITLE17=My Baby's Gone
TTITLE18=Just Out Of Reach
TTITLE19=Yesterday
TTITLE20=In The Summer Of My Life
EXTD=
EXTT0=
EXTT1=
EXTT2=
EXTT3=
EXTT4=
EXTT5=
EXTT6=
EXTT7=
EXTT8=
EXTT9=
EXTT10=
EXTT11=
EXTT12=
EXTT13=
EXTT14=
EXTT15=
EXTT16=
EXTT17=
EXTT18=
EXTT19=
EXTT20=
PLAYORDER=
